<?xml version="1.0" encoding="UTF-8" standalone="no"?>
<svg
   xmlns:dc="http://purl.org/dc/elements/1.1/"
   xmlns:cc="http://creativecommons.org/ns#"
   xmlns:rdf="http://www.w3.org/1999/02/22-rdf-syntax-ns#"
   xmlns:svg="http://www.w3.org/2000/svg"
   xmlns="http://www.w3.org/2000/svg"
   version="1.1"
   id="svg2"
   viewBox="0 0 546.62 1021.2553"
   height="288.22095mm"
   width="154.26831mm">
  <defs
     id="defs4" />
  <metadata
     id="metadata7">
    <rdf:RDF>
      <cc:Work
         rdf:about="">
        <dc:format>image/svg+xml</dc:format>
        <dc:type
           rdf:resource="http://purl.org/dc/dcmitype/StillImage" />
        <dc:title></dc:title>
      </cc:Work>
    </rdf:RDF>
  </metadata>
  <g
     style="display:inline"
     id="layer5">
    <path
       id="path4270"
       d="m 120.73432,978.04972 c 13.6298,-67.0393 28.4259,-112.1605 52.7072,-189.67568 20.62491,-65.84225 39.65359,-122.37646 54.43569,-188.8958 l -20.71428,-2.14285 c -11.2004,62.12293 -23.1583,122.73092 -40.00001,173.57142 L 77.162928,966.62112 Z"
       style="display:inline;fill:#333333;fill-rule:evenodd;stroke:#181616;stroke-width:1px;stroke-linecap:butt;stroke-linejoin:miter;stroke-opacity:0.94339624" />
    <path
       id="path4272"
       d="m 442.16291,953.76392 c -49.0297,-138.01713 -117.914,-253.844 -199.2857,-355.71424 l 24.2857,-2.14286 c 68.9323,104.29485 103.0618,119.66245 175,357.8571 z"
       style="display:inline;fill:#333333;fill-opacity:1;fill-rule:evenodd;stroke:#181616;stroke-width:1px;stroke-linecap:butt;stroke-linejoin:miter;stroke-opacity:0.94339624" />
    <path
       id="path4274"
       d="m 287.71125,658.43447 17.30886,-7.52765 c 25.363,33.15705 32.0834,40.63167 56.7857,88.57141 l -17.5,5 c -18.5971,-29.0348 -36.09296,-57.9612 -56.59456,-86.04376 z"
       style="display:inline;fill:#ffffff;fill-opacity:1;fill-rule:evenodd;stroke:#333333;stroke-width:1px;stroke-linecap:butt;stroke-linejoin:miter;stroke-opacity:1" />
    <path
       id="path4276"
       d="m 391.33807,833.04962 10.49535,-2.8571 c 22.7712,60.3965 25.95529,74.7357 34.61519,102.5 l -2.8571,0.3571 z"
       style="display:inline;fill:#ffffff;fill-opacity:1;fill-rule:evenodd;stroke:#333333;stroke-width:1px;stroke-linecap:butt;stroke-linejoin:miter;stroke-opacity:1" />
  </g>
  <g
     id="layer7">
    <path
       id="path4212"
       d="m 300.20106,177.52287 c -18.4911,1.25512 -16.36349,6.38241 -33.96289,14.31054 l -60.62891,21.73438 c 22.43481,52.12059 15.0421,33.69609 16.58517,78.9237 -6.60571,102.88667 7.31294,108.61863 -3.91018,321.15945 l 59.55356,-4.92323 c -30.5065,-69.13547 -30.2828,-132.28424 12.5,-187.14258 -21.11438,-41.97638 -36.06958,-71.52681 -45.32422,-92.59961 l 0.15234,-0.01 -6.41015,-42.4375 3.23047,-13.0703 22.80078,-1.88672 30.38867,-26.88867 c 11.475,-26.19524 4.15549,-37.35289 5.02539,-67.16992 z"
       style="display:inline;fill:#333333;fill-opacity:1;fill-rule:evenodd;stroke:#181616;stroke-width:1px;stroke-linecap:butt;stroke-linejoin:miter;stroke-opacity:0.94339624" />
  </g>
  <g
     style="display:inline"
     id="layer9">
    <path
       id="path4244"
       d="m 210.09793,563.94378 c 0,0 8.21428,-23.21429 6.42858,-24.64286 -1.7857,-1.42857 -40.35718,-10 -40.35718,-10 z"
       style="display:inline;fill:#ffffff;fill-opacity:1;fill-rule:evenodd;stroke:#181616;stroke-width:1px;stroke-linecap:butt;stroke-linejoin:miter;stroke-opacity:0.94339624" />
    <path
       id="path4240"
       d="m 195.45503,601.22949 37.49998,6.78571 c 0.7516,-77.79056 7.0669,-137.49884 2.2547,-233.37168 -3.0944,62.3178 -24.28308,179.50149 -39.75468,226.58597 z"
       style="display:inline;fill:#333333;fill-opacity:1;fill-rule:evenodd;stroke:#ffffff;stroke-width:2.5999999;stroke-linecap:butt;stroke-linejoin:miter;stroke-miterlimit:4;stroke-dasharray:none;stroke-opacity:1" />
    <path
       id="path4242"
       d="m 173.66933,528.72949 49.64288,-51.07143 -8.5714,62.5 z"
       style="display:inline;fill:#333333;fill-opacity:1;fill-rule:evenodd;stroke:#ffffff;stroke-width:2.5999999;stroke-linecap:butt;stroke-linejoin:miter;stroke-miterlimit:4;stroke-dasharray:none;stroke-opacity:1" />
    <path
       id="path4341"
       d="m 199.01183,586.22672 1.437,1.09284 16.24068,-5.9542 -1.1995,-2.84105 2.6516,-1.38896 5.3665,9.21764 -3.8513,1.51523 c 5.2414,1.8229 6.9694,4.38544 6.3135,7.44987 l -7.6393,2.08344 c 0.8512,-3.53053 1.281,-6.88371 -3.4092,-8.08122 l -11.42738,4.04061 c -0.7918,0.30252 -1.344,0.8447 -1.5152,1.76777 l 1.1364,4.10374 -2.7148,0 -2.6517,-9.28077 z"
       style="display:inline;fill:#ffffff;fill-opacity:1;fill-rule:evenodd;stroke:#181616;stroke-width:0.1;stroke-linecap:butt;stroke-linejoin:miter;stroke-miterlimit:4;stroke-dasharray:none;stroke-opacity:0.94339624" />
    <path
       id="path4390"
       d="m 230.63501,393.43716 5.2718,7.90774 0.659,28.99506 z"
       style="display:inline;fill:#ffffff;fill-opacity:1;fill-rule:evenodd;stroke:#181616;stroke-width:1px;stroke-linecap:butt;stroke-linejoin:miter;stroke-opacity:0.94339624" />
  </g>
  <g
     style="display:inline"
     id="layer4">
    <path
       id="path4216"
       d="m 195.30472,309.39081 68.92858,-5 c -5.4399,70.79162 -26.1693,191.88606 165,232.50001 l -18.2143,32.85714 c 0,0 -15.9664,23.38566 -17.1428,22.5 C 374.5353,577.68741 303.1882,496.62044 264.5545,439.17109 238.5793,400.54511 195.30472,309.39081 195.30472,309.39081 Z"
       style="display:inline;fill:#333333;fill-rule:evenodd;stroke:#ffffff;stroke-width:2.5999999;stroke-linecap:butt;stroke-linejoin:miter;stroke-miterlimit:4;stroke-dasharray:none;stroke-opacity:1" />
    <g
       transform="translate(-59.90238,-2.0612027)"
       id="g4396"
       style="display:inline;fill:#ffffff;stroke:#181616;stroke-opacity:0.94339624">
      <path
         style="fill:#ffffff;fill-rule:evenodd;stroke:#181616;stroke-width:0.2;stroke-linecap:butt;stroke-linejoin:miter;stroke-miterlimit:4;stroke-dasharray:none;stroke-opacity:0.94339624"
         d="m 255.68369,313.15298 c 3.84736,-1.83602 5.51468,-0.0387 6.75453,2.47117 l 1.81219,4.61285 -3.13015,0.16474 3.2949,5.60132 -2.80066,-0.32949 -5.93081,-11.69687 z"
         id="path4392" />
      <path
         style="fill:#ffffff;fill-rule:evenodd;stroke:#181616;stroke-width:0.2;stroke-linecap:butt;stroke-linejoin:miter;stroke-miterlimit:4;stroke-dasharray:none;stroke-opacity:0.94339624"
         d="m 264.25041,330.9454 11.36738,21.74629 9.71994,-4.61285 -8.73147,-12.1911 c -1.3161,-2.36505 -3.03429,-3.92593 -6.09555,-2.80066 -2.37385,-2.43639 -4.3148,-2.27539 -6.2603,-2.14168 z"
         id="path4394" />
    </g>
  </g>
  <g
     style="display:inline"
     id="layer8">
    <path
       id="path4210"
       d="m 114.53481,306.75312 18.5714,-19.28572 17.5,-24.28571 16.0715,-21.78572 26.7857,-42.85714 4.2857,-7.14286 5.7143,-7.5 82.14279,-27.14285 13.5715,2.5 33.9285,3.57142 20.7143,2.5 31.2857,1.42858 15.5,0.71428 45,1.42857 11.7858,-0.35714 6.4285,-1.07143 -5.7143,3.57143 -33.2142,5.35714 -54.2858,8.21429 -23.9285,8.21428 -29.2857,6.78572 -40.3572,12.5 -25,13.21428 -46.78569,25 -18.9286,10.35715 -15.7143,9.28571 -21.7857,16.78572 -16.7857,15 -12.5,12.14285 z"
       style="display:inline;fill:#333333;fill-opacity:1;fill-rule:evenodd;stroke:#181616;stroke-width:1px;stroke-linecap:butt;stroke-linejoin:miter;stroke-opacity:0.94339624" />
    <path
       id="path3402"
       d="m 141.67771,57.824551 106.42849,25.35714 15.3572,44.999999 -64.64289,56.78571 -30.3571,-22.85714 -26.7857,-78.571429 -1.7858,-16.42857 z"
       style="display:inline;fill:#ffffff;fill-opacity:1;fill-rule:evenodd;stroke:#181616;stroke-width:1px;stroke-linecap:butt;stroke-linejoin:miter;stroke-opacity:0.94339624" />
    <path
       id="path3404"
       d="m 166.32051,164.25312 22.1429,-19.64286 26.42851,-26.42857 14.64288,-12.5 27.1429,-28.928569 -28.5715,21.07143 -12.5,11.071429 -14.64279,13.92857 -13.5715,16.42857 z"
       style="display:inline;fill:#333333;fill-opacity:1;fill-rule:evenodd;stroke:#181616;stroke-width:1px;stroke-linecap:butt;stroke-linejoin:miter;stroke-opacity:0.94339624" />
    <path
       id="path3406"
       d="m 186.67771,194.9674 105.35709,-35.35714 -2.1152,-6.17969 -63.9562,18.67969 z"
       style="display:inline;fill:#ffffff;fill-opacity:1;fill-rule:evenodd;stroke:#181616;stroke-width:1px;stroke-linecap:butt;stroke-linejoin:miter;stroke-opacity:0.94339624" />
    <path
       id="path4208"
       d="m 186.67771,194.61026 77.14279,-67.14286 26.1545,25.99082 c -39.6411,7.12996 -71.12,25.62537 -103.29729,41.15204 z"
       style="display:inline;fill:#333333;fill-opacity:1;fill-rule:evenodd;stroke:#181616;stroke-width:1px;stroke-linecap:butt;stroke-linejoin:miter;stroke-opacity:0.94339624" />
  </g>
</svg>
