<svg xmlns="http://www.w3.org/2000/svg" width="365.84" height="927.599">
  <path fill-rule="evenodd" stroke="#181616" d="M44.275 926.98c13.63-67.04 28.426-112.16 52.707-189.675 20.625-65.842 39.653-122.376 54.435-188.896l-20.714-2.144c-11.2 62.123-23.158 122.73-40 173.572l-90 195.714zM211.926 607.697c-13.778-19.456-41.064-53.325-45.51-60.716l28.344-1.06c8.502 11.578 14.986 21.588 36.608 51.094zm146.55 260.592c3.008 8.463 3.684 22.903 3.576 22.894 0 0-5.283-17.937-7.802-22.09zm-44.953-94.972c-21.356-40.202-34.64-65.604-44.185-85.32l13.747-3.58c7.47 16.17 24.134 42.292 41.45 86.013z"/>
  <path fill="none" stroke="#333" d="M211.358 607.636l20.014-9.69c27.526 39.647 27.756 39.008 52.458 86.947l-14.795 3.918c-18.597-29.033-35.552-51.47-57.677-81.174zM312.985 773.19l11.713-3.262c22.77 60.396 25.28 70.68 33.94 98.443l-4.616.764z"/>
  <path fill-rule="evenodd" stroke="#181616"  d="M220.64 119.283c-18.49 1.255-16.362 6.382-33.962 14.31l-60.63 21.734c22.436 52.12 15.044 33.697 16.587 78.924-6.606 102.888 7.313 108.62-3.91 321.16l59.553-4.923c-30.507-69.135-30.283-132.284 12.5-187.142-21.114-41.977-36.07-71.527-45.324-92.6l.152-.01-6.41-42.437 3.23-13.07 22.8-1.887 30.39-26.888c11.475-26.195 4.155-37.353 5.025-67.17z"/>
  <path fill="#ff4063" fill-rule="evenodd" stroke="#ff4063" d="M16.29 251.78l18.57-19.287 17.5-24.285 16.073-21.786 26.785-42.857 4.286-7.143 5.714-7.5 82.143-27.143 13.573 2.5 33.928 3.57 20.715 2.5 31.286 1.43 15.5.713 45 1.43 11.787-.358 6.428-1.072-5.714 3.572-33.213 5.357-54.286 8.214-23.927 8.214-29.286 6.786-40.357 12.5-25 13.214-46.786 25-18.93 10.358-15.713 9.285-21.785 16.786-16.785 15-12.5 12.142z"/>
  <path fill-rule="evenodd" d="M41.433.85L147.86 26.208l15.358 45-64.643 56.785-30.357-22.857-26.785-78.57-1.786-16.43z"/>
  <path fill="#ff4063" fill-rule="evenodd" stroke="#ff4063" d="M68.075 109.28l22.143-19.644 26.43-26.428 14.642-12.5 27.143-28.93L129.86 42.85l-12.5 11.072L102.72 67.85l-13.57 16.43z"/>
  <path fill-rule="evenodd" stroke="#ff8080" d="M85.458 136.424l105.358-35.357-2.116-6.18-63.956 18.68z"/>
  <path fill="#ff4063" fill-rule="evenodd" stroke="#ff4063" d="M86.648 137.636l77.143-67.143 26.155 25.99c-39.64 7.13-71.12 25.626-103.297 41.153z"/>
  <g>
    <path fill="none" stroke="#181616"  d="M124.435 514.742s8.214-23.215 6.43-24.643c-1.787-1.43-40.36-10-40.36-10z"/>
    <path fill="#333" fill-rule="evenodd" stroke="#fff" stroke-width="2.6" d="M109.792 552.027l37.5 6.786c.752-77.79 7.067-137.5 2.255-233.372-3.095 62.32-24.283 179.503-39.755 226.587z"/>
    <path fill="#333" fill-rule="evenodd" stroke="#fff" stroke-width="2.6" d="M88.006 479.527l49.643-51.07-8.572 62.5z"/>
    <path fill="#fff" fill-rule="evenodd" stroke="#181616"  stroke-width=".1" d="M113.35 537.025l1.436 1.092 16.24-5.954-1.2-2.84 2.653-1.39 5.365 9.218-3.85 1.516c5.24 1.823 6.968 4.386 6.312 7.45l-7.64 2.083c.852-3.53 1.282-6.884-3.408-8.082l-11.428 4.04c-.792.303-1.344.845-1.516 1.77l1.137 4.102h-2.715l-2.652-9.28z"/>
    <path fill="#fff" fill-rule="evenodd" stroke="#181616"  d="M144.972 344.235l5.272 7.908.66 28.995z"/>
  </g>
  <g fill-rule="evenodd">
    <path fill="#333" stroke="#fff" stroke-width="2.6" d="M122.553 259.044l68.93-5c-5.44 70.792-26.17 191.886 165 232.5L338.267 519.4s-15.967 23.387-17.143 22.5c-19.34-14.56-90.688-95.626-129.322-153.075-25.975-38.626-69.25-129.78-69.25-129.78z"/>
    <g fill="#fff" stroke="#181616"  stroke-width=".2">
      <path d="M123.677 260.976c3.847-1.836 5.514-.038 6.754 2.47l1.813 4.614-3.13.165 3.295 5.6-2.8-.328-5.93-11.697zM132.243 278.77l11.368 21.745 9.72-4.613-8.73-12.19c-1.317-2.366-3.035-3.927-6.096-2.802-2.374-2.436-4.315-2.275-6.26-2.14z"/>
    </g>
  </g>
</svg>
