<svg xmlns="http://www.w3.org/2000/svg"
   width="365.84042"
   height="927.59857">

  <g id="layer3" transform="translate(-93.810706,-70.398766)">
    <path
       id="path4270"
       d="m 138.08531,997.37951 c 13.6298,-67.0393 28.4259,-112.16049 52.7072,-189.67568 20.62491,-65.84225 39.6536,-122.37646 54.43569,-188.8958 l -20.71428,-2.14285 c -11.2004,62.12293 -23.1583,122.73092 -40.00001,173.57142 L 94.513923,985.95091 Z"
       style="display:inline;fill:#000000;fill-rule:evenodd;stroke:#181616;stroke-width:1px;stroke-linecap:butt;stroke-linejoin:miter;stroke-opacity:0.94339624"
       inkscape:connector-curvature="0" />
    <path
       id="path4272"
       d="M 305.73672,678.0955 C 291.95901,658.63995 264.67248,624.77061 260.2282,617.37947 l 28.3426,-1.06102 c 8.50204,11.57849 14.98625,21.58856 36.60823,51.09423 z m 146.5487,260.59234 c 3.00936,8.46383 3.68503,22.90429 3.57717,22.8953 0,0 -5.28259,-17.93769 -7.80154,-22.09041 z m -44.95174,-94.97061 c -21.35647,-40.20217 -34.64144,-65.60411 -44.1848,-85.32012 l 13.74713,-3.58053 c 7.4682,16.17038 24.13362,42.2917 41.45052,86.01314 z"
       style="display:inline;fill:#000000;fill-opacity:1;fill-rule:evenodd;stroke:#181616;stroke-width:1px;stroke-linecap:butt;stroke-linejoin:miter;stroke-opacity:0.94339624"
       inkscape:connector-curvature="0" />
    <path
       id="path4274"
       d="m 305.16903,678.03473 20.01345,-9.69133 c 27.52667,39.64808 27.75605,39.00892 52.45836,86.94866 l -14.79541,3.91816 c -18.59711,-29.0348 -35.55204,-51.47017 -57.6764,-81.17549 z"
       style="display:inline;fill:none;fill-opacity:1;fill-rule:evenodd;stroke:#333333;stroke-width:1px;stroke-linecap:butt;stroke-linejoin:miter;stroke-opacity:1"
       inkscape:connector-curvature="0" />
    <path
       id="path4276"
       d="m 406.79585,843.58947 11.71241,-3.26278 c 22.77121,60.3965 25.27914,70.6788 33.93904,98.44311 l -4.61509,0.76278 z"
       style="display:inline;fill:none;fill-opacity:1;fill-rule:evenodd;stroke:#333333;stroke-width:1px;stroke-linecap:butt;stroke-linejoin:miter;stroke-opacity:1"
       inkscape:connector-curvature="0" />
  </g>
  <g id="layer2" transform="translate(-93.810706,-70.398766)">
    <g style="fill:#000000" id="layer7" transform="translate(14.25086,12.158451)">
      <path
         style="display:inline;fill:#000000;fill-opacity:1;fill-rule:evenodd;stroke:#181616;stroke-width:1px;stroke-linecap:butt;stroke-linejoin:miter;stroke-opacity:0.94339624"
         d="m 300.20106,177.52287 c -18.4911,1.25512 -16.36349,6.38241 -33.96289,14.31054 l -60.62891,21.73438 c 22.43481,52.12059 15.0421,33.69609 16.58517,78.9237 -6.60571,102.88667 7.31294,108.61863 -3.91018,321.15945 l 59.55356,-4.92323 c -30.5065,-69.13547 -30.2828,-132.28424 12.5,-187.14258 -21.11438,-41.97638 -36.06958,-71.52681 -45.32422,-92.59961 l 0.15234,-0.01 -6.41015,-42.4375 3.23047,-13.0703 22.80078,-1.88672 30.38867,-26.88867 c 11.475,-26.19524 4.15549,-37.35289 5.02539,-67.16992 z"
         id="path4212"
         inkscape:connector-curvature="0" />
    </g>
  </g>
  <path
     inkscape:connector-curvature="0"
     style="display:inline;fill:#ff4063;fill-opacity:1;fill-rule:evenodd;stroke:#ff4063;stroke-width:1px;stroke-linecap:butt;stroke-linejoin:miter;stroke-opacity:1"
     d="m 16.289714,251.77903 18.5714,-19.28572 17.5,-24.28571 16.0715,-21.78572 26.7857,-42.85714 4.2857,-7.14286 5.714296,-7.5 82.1428,-27.14285 13.5715,2.5 33.9285,3.57142 20.7143,2.5 31.2857,1.42858 15.5,0.71428 45,1.42857 11.7858,-0.35714 6.4285,-1.07143 -5.7143,3.57143 -33.2142,5.35714 -54.2858,8.21429 -23.9285,8.21428 -29.2857,6.78572 -40.3572,12.5 -25,13.21428 -46.7857,25 -18.928596,10.35715 -15.7143,9.28571 -21.7857,16.78572 -16.7857,15 -12.5,12.14285 z"
     id="path4210" />
  <path
     inkscape:connector-curvature="0"
     style="display:inline;fill:#000000;fill-opacity:1;fill-rule:evenodd;stroke:none;stroke-width:1.39999998;stroke-linecap:butt;stroke-linejoin:miter;stroke-miterlimit:4;stroke-dasharray:none;stroke-opacity:1"
     d="m 41.432614,0.85046 106.428496,25.357144 15.3572,45 -64.642896,56.785706 -30.3571,-22.85714 -26.7857,-78.571426 -1.7858,-16.428574 z"
     id="path3402" />
  <path
     inkscape:connector-curvature="0"
     style="display:inline;fill:#ff4063;fill-opacity:1;fill-rule:evenodd;stroke:#ff4063;stroke-width:1px;stroke-linecap:butt;stroke-linejoin:miter;stroke-opacity:1"
     d="m 68.075414,109.27903 22.1429,-19.642856 26.428516,-26.42857 14.64288,-12.5 27.1429,-28.92857 -28.5715,21.07143 -12.5,11.07143 -14.6428,13.92857 -13.571496,16.42857 z"
     id="path3404" />
  <path
     inkscape:connector-curvature="0"
     style="display:inline;fill:#000000;fill-opacity:1;fill-rule:evenodd;stroke:#ff8080;stroke-width:1px;stroke-linecap:butt;stroke-linejoin:miter;stroke-opacity:1"
     d="m 85.458414,136.42427 105.357096,-35.35714 -2.1152,-6.179686 -63.9562,18.679686 z"
     id="path3406" />
  <path
     inkscape:connector-curvature="0"
     style="display:inline;fill:#ff4063;fill-opacity:1;fill-rule:evenodd;stroke:#ff4063;stroke-width:1px;stroke-linecap:butt;stroke-linejoin:miter;stroke-opacity:1"
     d="m 86.648084,137.63617 77.142796,-67.142856 26.1545,25.99082 c -39.6411,7.129956 -71.12,25.625366 -103.297296,41.152036 z"
     id="path4208" />
  <g
     style="display:inline"
     id="layer5"
     transform="translate(-93.810706,-70.398766)">
    <path
       id="path4244"
       d="m 218.24573,585.1404 c 0,0 8.21428,-23.21429 6.42858,-24.64286 -1.7857,-1.42857 -40.35718,-10 -40.35718,-10 z"
       style="display:inline;fill:none;fill-opacity:1;fill-rule:evenodd;stroke:#181616;stroke-width:1px;stroke-linecap:butt;stroke-linejoin:miter;stroke-opacity:0.94339624"
       inkscape:connector-curvature="0" />
    <path
       id="path4240"
       d="m 203.60283,622.42611 37.49998,6.78571 c 0.7516,-77.79056 7.0669,-137.49884 2.2547,-233.37168 -3.0944,62.3178 -24.28308,179.50149 -39.75468,226.58597 z"
       style="display:inline;fill:#333333;fill-opacity:1;fill-rule:evenodd;stroke:#ffffff;stroke-width:2.5999999;stroke-linecap:butt;stroke-linejoin:miter;stroke-miterlimit:4;stroke-dasharray:none;stroke-opacity:1"
       inkscape:connector-curvature="0" />
    <path
       id="path4242"
       d="m 181.81713,549.92611 49.64288,-51.07143 -8.5714,62.5 z"
       style="display:inline;fill:#333333;fill-opacity:1;fill-rule:evenodd;stroke:#ffffff;stroke-width:2.5999999;stroke-linecap:butt;stroke-linejoin:miter;stroke-miterlimit:4;stroke-dasharray:none;stroke-opacity:1"
       inkscape:connector-curvature="0" />
    <path
       id="path4341"
       d="m 207.15963,607.42334 1.437,1.09284 16.24068,-5.9542 -1.1995,-2.84105 2.6516,-1.38896 5.3665,9.21764 -3.8513,1.51523 c 5.2414,1.8229 6.9694,4.38544 6.3135,7.44987 l -7.6393,2.08344 c 0.8512,-3.53053 1.281,-6.88371 -3.4092,-8.08122 l -11.42738,4.04061 c -0.7918,0.30252 -1.344,0.8447 -1.5152,1.76777 l 1.1364,4.10374 -2.7148,0 -2.6517,-9.28077 z"
       style="display:inline;fill:#ffffff;fill-opacity:1;fill-rule:evenodd;stroke:#181616;stroke-width:0.1;stroke-linecap:butt;stroke-linejoin:miter;stroke-miterlimit:4;stroke-dasharray:none;stroke-opacity:0.94339624"
       inkscape:connector-curvature="0" />
    <path
       id="path4390"
       d="m 238.78281,414.63378 5.2718,7.90774 0.659,28.99506 z"
       style="display:inline;fill:#ffffff;fill-opacity:1;fill-rule:evenodd;stroke:#181616;stroke-width:1px;stroke-linecap:butt;stroke-linejoin:miter;stroke-opacity:0.94339624"
       inkscape:connector-curvature="0" />
  </g>
  <g
     style="display:inline"
     id="layer6"
     transform="translate(-93.810706,-70.398766)">
    <path
       id="path4216"
       d="m 216.36392,329.44307 68.92858,-5 c -5.4399,70.79162 -26.1693,191.88606 165.00001,232.50001 l -18.2143,32.85714 c 0,0 -15.9664,23.38566 -17.1428,22.5 C 395.59451,597.73967 324.24741,516.6727 285.6137,459.22335 259.6385,420.59737 216.36392,329.44307 216.36392,329.44307 Z"
       style="display:inline;fill:#333333;fill-rule:evenodd;stroke:#ffffff;stroke-width:2.5999999;stroke-linecap:butt;stroke-linejoin:miter;stroke-miterlimit:4;stroke-dasharray:none;stroke-opacity:1"
       inkscape:connector-curvature="0" />
    <g
       transform="translate(-38.196407,18.221992)"
       id="g4396"
       style="display:inline;fill:#ffffff;stroke:#181616;stroke-opacity:0.94339624">
      <path
         style="fill:#ffffff;fill-rule:evenodd;stroke:#181616;stroke-width:0.2;stroke-linecap:butt;stroke-linejoin:miter;stroke-miterlimit:4;stroke-dasharray:none;stroke-opacity:0.94339624"
         d="m 255.68369,313.15298 c 3.84736,-1.83602 5.51468,-0.0387 6.75453,2.47117 l 1.81219,4.61285 -3.13015,0.16474 3.2949,5.60132 -2.80066,-0.32949 -5.93081,-11.69687 z"
         id="path4392"
         inkscape:connector-curvature="0" />
      <path
         style="fill:#ffffff;fill-rule:evenodd;stroke:#181616;stroke-width:0.2;stroke-linecap:butt;stroke-linejoin:miter;stroke-miterlimit:4;stroke-dasharray:none;stroke-opacity:0.94339624"
         d="m 264.25041,330.9454 11.36738,21.74629 9.71994,-4.61285 -8.73147,-12.1911 c -1.3161,-2.36505 -3.03429,-3.92593 -6.09555,-2.80066 -2.37385,-2.43639 -4.3148,-2.27539 -6.2603,-2.14168 z"
         id="path4394"
         inkscape:connector-curvature="0" />
    </g>
  </g>
</svg>
