<?xml version="1.0" encoding="UTF-8" standalone="no"?>
<!-- Created with Inkscape (http://www.inkscape.org/) -->

<svg
   xmlns:dc="http://purl.org/dc/elements/1.1/"
   xmlns:cc="http://creativecommons.org/ns#"
   xmlns:rdf="http://www.w3.org/1999/02/22-rdf-syntax-ns#"
   xmlns:svg="http://www.w3.org/2000/svg"
   xmlns="http://www.w3.org/2000/svg"
   xmlns:sodipodi="http://sodipodi.sourceforge.net/DTD/sodipodi-0.dtd"
   xmlns:inkscape="http://www.inkscape.org/namespaces/inkscape"
   width="109.39661mm"
   height="260.05377mm"
   viewBox="0 0 387.6258 921.45035"
   id="svg2"
   version="1.1"
   inkscape:version="0.91 r13725"
   sodipodi:docname="manequin-marie-line-bw-optimized.svg">
  <defs
     id="defs4" />
  <sodipodi:namedview
     id="base"
     pagecolor="#ffffff"
     bordercolor="#666666"
     borderopacity="1.0"
     inkscape:pageopacity="0.0"
     inkscape:pageshadow="2"
     inkscape:zoom="0.379375"
     inkscape:cx="-168.55401"
     inkscape:cy="336.17763"
     inkscape:document-units="px"
     inkscape:current-layer="layer5"
     showgrid="false"
     inkscape:window-width="1325"
     inkscape:window-height="744"
     inkscape:window-x="41"
     inkscape:window-y="24"
     inkscape:window-maximized="1"
     fit-margin-top="0"
     fit-margin-left="0"
     fit-margin-right="0"
     fit-margin-bottom="0"
     inkscape:showpageshadow="false"
     showborder="false" />
  <metadata
     id="metadata7">
    <rdf:RDF>
      <cc:Work
         rdf:about="">
        <dc:format>image/svg+xml</dc:format>
        <dc:type
           rdf:resource="http://purl.org/dc/dcmitype/StillImage" />
        <dc:title></dc:title>
      </cc:Work>
    </rdf:RDF>
  </metadata>
  <g
     inkscape:groupmode="layer"
     id="layer5"
     inkscape:label="jambes"
     style="display:inline"
     transform="translate(-76.459711,-57.217141)">
    <path
       style="display:inline;fill:#333333;fill-rule:evenodd;stroke:#181616;stroke-width:1px;stroke-linecap:butt;stroke-linejoin:miter;stroke-opacity:0.94339624"
       d="m 120.73432,978.04972 c 13.6298,-67.0393 28.4259,-112.1605 52.7072,-189.67568 20.62491,-65.84225 39.65359,-122.37646 54.43569,-188.8958 l -20.71428,-2.14285 c -11.2004,62.12293 -23.1583,122.73092 -40.00001,173.57142 L 77.162928,966.62112 Z"
       id="path4270"
       inkscape:connector-curvature="0"
       sodipodi:nodetypes="csccccc" />
    <path
       style="display:inline;fill:#333333;fill-opacity:1;fill-rule:evenodd;stroke:#181616;stroke-width:1px;stroke-linecap:butt;stroke-linejoin:miter;stroke-opacity:0.94339624"
       d="m 442.16291,953.76392 c -49.0297,-138.01713 -117.914,-253.844 -199.2857,-355.71424 l 24.2857,-2.14286 c 68.9323,104.29485 103.0618,119.66245 175,357.8571 z"
       id="path4272"
       inkscape:connector-curvature="0"
       sodipodi:nodetypes="cccc" />
    <path
       style="display:inline;fill:#ffffff;fill-opacity:1;fill-rule:evenodd;stroke:#333333;stroke-width:1px;stroke-linecap:butt;stroke-linejoin:miter;stroke-opacity:1"
       d="m 287.71125,658.43447 17.30886,-7.52765 c 25.363,33.15705 32.0834,40.63167 56.7857,88.57141 l -17.5,5 c -18.5971,-29.0348 -36.09296,-57.9612 -56.59456,-86.04376 z"
       id="path4274"
       inkscape:connector-curvature="0"
       sodipodi:nodetypes="ccccc" />
    <path
       style="display:inline;fill:#ffffff;fill-opacity:1;fill-rule:evenodd;stroke:#333333;stroke-width:1px;stroke-linecap:butt;stroke-linejoin:miter;stroke-opacity:1"
       d="m 391.33807,833.04962 10.49535,-2.8571 c 22.7712,60.3965 25.95529,74.7357 34.61519,102.5 l -2.8571,0.3571 z"
       id="path4276"
       inkscape:connector-curvature="0"
       sodipodi:nodetypes="ccccc" />
  </g>
  <g
     inkscape:groupmode="layer"
     id="layer7"
     inkscape:label="corps"
     transform="translate(-76.459711,-57.217141)">
    <path
       style="display:inline;fill:#333333;fill-opacity:1;fill-rule:evenodd;stroke:#181616;stroke-width:1px;stroke-linecap:butt;stroke-linejoin:miter;stroke-opacity:0.94339624"
       d="m 300.20106,177.52287 c -18.4911,1.25512 -16.36349,6.38241 -33.96289,14.31054 l -60.62891,21.73438 c 22.43481,52.12059 15.0421,33.69609 16.58517,78.9237 21.35238,158.80286 12.90456,280.09494 -3.91018,321.15945 l 59.55356,-4.92323 c -30.5065,-69.13547 -30.2828,-132.28424 12.5,-187.14258 -21.11438,-41.97638 -36.06958,-71.52681 -45.32422,-92.59961 l 0.15234,-0.01 -6.41015,-42.4375 3.23047,-13.0703 22.80078,-1.88672 30.38867,-26.88867 c 11.475,-26.19524 4.15549,-37.35289 5.02539,-67.16992 z"
       id="path4212"
       inkscape:connector-curvature="0"
       sodipodi:nodetypes="ccccccccccccccc" />
  </g>
  <g
     inkscape:groupmode="layer"
     id="layer9"
     inkscape:label="plis robe"
     style="display:inline"
     transform="translate(-76.459711,-57.217141)">
    <path
       style="display:inline;fill:#ffffff;fill-opacity:1;fill-rule:evenodd;stroke:#181616;stroke-width:1.07453263px;stroke-linecap:butt;stroke-linejoin:miter;stroke-opacity:0.94339624"
       d="m 206.8109,564.74949 c 0,0 8.19091,-26.88017 6.41029,-28.53433 -1.78062,-1.65416 -40.24235,-11.57915 -40.24235,-11.57915 z"
       id="path4244"
       inkscape:connector-curvature="0" />
    <path
       style="display:inline;fill:#333333;fill-opacity:1;fill-rule:evenodd;stroke:#ffffff;stroke-width:2.79378486;stroke-linecap:butt;stroke-linejoin:miter;stroke-miterlimit:4;stroke-dasharray:none;stroke-opacity:1"
       d="m 192.20966,607.92318 37.39329,7.85727 c 0.74946,-90.07485 7.04679,-159.21196 2.24828,-270.22455 -3.08559,72.15871 -24.21399,207.84745 -39.64157,262.36728 z"
       id="path4240"
       inkscape:connector-curvature="0"
       sodipodi:nodetypes="cccc" />
    <path
       style="display:inline;fill:#333333;fill-opacity:1;fill-rule:evenodd;stroke:#ffffff;stroke-width:2.79378486;stroke-linecap:butt;stroke-linejoin:miter;stroke-miterlimit:4;stroke-dasharray:none;stroke-opacity:1"
       d="m 170.48595,523.97434 49.50163,-59.13637 -8.54701,72.36968 z"
       id="path4242"
       inkscape:connector-curvature="0" />
    <path
       style="display:inline;fill:#ffffff;fill-opacity:1;fill-rule:evenodd;stroke:#181616;stroke-width:0.10745326;stroke-linecap:butt;stroke-linejoin:miter;stroke-miterlimit:4;stroke-dasharray:none;stroke-opacity:0.94339624"
       d="m 195.75634,590.55124 1.43292,1.26542 16.19447,-6.89446 -1.19609,-3.28969 2.64406,-1.6083 5.35123,10.67324 -3.84034,1.75451 c 5.22648,2.11076 6.94957,5.07797 6.29553,8.62632 l -7.61756,2.41244 c 0.84878,-4.08805 1.27735,-7.97075 -3.3995,-9.35736 l -11.39487,4.67868 c -0.78955,0.35029 -1.34018,0.97809 -1.51089,2.04693 l 1.13317,4.75178 -2.70708,0 -2.64415,-10.74634 z"
       id="path4341"
       inkscape:connector-curvature="0"
       sodipodi:nodetypes="cccccccccccccccc" />
  </g>
  <g
     inkscape:groupmode="layer"
     id="layer4"
     inkscape:label="bras"
     style="display:inline"
     transform="translate(-76.459711,-57.217141)">
    <path
       style="display:inline;fill:#333333;fill-rule:evenodd;stroke:#ffffff;stroke-width:2.5999999;stroke-linecap:butt;stroke-linejoin:miter;stroke-miterlimit:4;stroke-dasharray:none;stroke-opacity:1"
       d="m 195.30472,309.39081 68.92858,-5 c -5.4399,70.79162 -26.1693,191.88606 165,232.50001 l -18.2143,32.85714 c 0,0 -15.9664,23.38566 -17.1428,22.5 C 374.5353,577.68741 303.1882,496.62044 264.5545,439.17109 238.5793,400.54511 195.30472,309.39081 195.30472,309.39081 Z"
       id="path4216"
       inkscape:connector-curvature="0"
       sodipodi:nodetypes="ccccssc" />
    <g
       style="display:inline;fill:#ffffff;stroke:#181616;stroke-opacity:0.94339624"
       id="g4396"
       transform="translate(-59.90238,-2.0612027)">
      <path
         sodipodi:nodetypes="cccccccc"
         inkscape:connector-curvature="0"
         id="path4392"
         d="m 255.68369,313.15298 c 3.84736,-1.83602 5.51468,-0.0387 6.75453,2.47117 l 1.81219,4.61285 -3.13015,0.16474 3.2949,5.60132 -2.80066,-0.32949 -5.93081,-11.69687 z"
         style="fill:#ffffff;fill-rule:evenodd;stroke:#181616;stroke-width:0.2;stroke-linecap:butt;stroke-linejoin:miter;stroke-miterlimit:4;stroke-dasharray:none;stroke-opacity:0.94339624" />
      <path
         sodipodi:nodetypes="cccccc"
         inkscape:connector-curvature="0"
         id="path4394"
         d="m 264.25041,330.9454 11.36738,21.74629 9.71994,-4.61285 -8.73147,-12.1911 c -1.3161,-2.36505 -3.03429,-3.92593 -6.09555,-2.80066 -2.37385,-2.43639 -4.3148,-2.27539 -6.2603,-2.14168 z"
         style="fill:#ffffff;fill-rule:evenodd;stroke:#181616;stroke-width:0.2;stroke-linecap:butt;stroke-linejoin:miter;stroke-miterlimit:4;stroke-dasharray:none;stroke-opacity:0.94339624" />
    </g>
  </g>
  <g
     inkscape:groupmode="layer"
     id="layer8"
     inkscape:label="chapeau"
     style="display:inline"
     transform="translate(-76.459711,-57.217141)">
    <path
       style="display:inline;fill:#333333;fill-opacity:1;fill-rule:evenodd;stroke:#181616;stroke-width:1px;stroke-linecap:butt;stroke-linejoin:miter;stroke-opacity:0.94339624"
       d="m 114.53481,306.75312 18.5714,-19.28572 17.5,-24.28571 16.0715,-21.78572 26.7857,-42.85714 4.2857,-7.14286 5.7143,-7.5 82.14279,-27.14285 13.5715,2.5 33.9285,3.57142 20.7143,2.5 31.2857,1.42858 15.5,0.71428 45,1.42857 11.7858,-0.35714 6.4285,-1.07143 -5.7143,3.57143 -33.2142,5.35714 -54.2858,8.21429 -23.9285,8.21428 -29.2857,6.78572 -40.3572,12.5 -25,13.21428 -46.78569,25 -18.9286,10.35715 -15.7143,9.28571 -21.7857,16.78572 -16.7857,15 -12.5,12.14285 z"
       id="path4210"
       inkscape:connector-curvature="0" />
    <path
       style="display:inline;fill:#ffffff;fill-opacity:1;fill-rule:evenodd;stroke:#181616;stroke-width:1px;stroke-linecap:butt;stroke-linejoin:miter;stroke-opacity:0.94339624"
       d="m 141.67771,57.824551 106.42849,25.35714 15.3572,44.999999 -64.64289,56.78571 -30.3571,-22.85714 -26.7857,-78.571429 -1.7858,-16.42857 z"
       id="path3402"
       inkscape:connector-curvature="0" />
    <path
       style="display:inline;fill:#333333;fill-opacity:1;fill-rule:evenodd;stroke:#181616;stroke-width:1px;stroke-linecap:butt;stroke-linejoin:miter;stroke-opacity:0.94339624"
       d="m 166.32051,164.25312 22.1429,-19.64286 26.42851,-26.42857 14.64288,-12.5 27.1429,-28.928569 -28.5715,21.07143 -12.5,11.071429 -14.64279,13.92857 -13.5715,16.42857 z"
       id="path3404"
       inkscape:connector-curvature="0" />
    <path
       style="display:inline;fill:#ffffff;fill-opacity:1;fill-rule:evenodd;stroke:#181616;stroke-width:1px;stroke-linecap:butt;stroke-linejoin:miter;stroke-opacity:0.94339624"
       d="m 186.67771,194.9674 105.35709,-35.35714 -2.1152,-6.17969 -63.9562,18.67969 z"
       id="path3406"
       inkscape:connector-curvature="0"
       sodipodi:nodetypes="ccccc" />
    <path
       style="display:inline;fill:#333333;fill-opacity:1;fill-rule:evenodd;stroke:#181616;stroke-width:1px;stroke-linecap:butt;stroke-linejoin:miter;stroke-opacity:0.94339624"
       d="m 186.67771,194.61026 77.14279,-67.14286 26.1545,25.99082 c -39.6411,7.12996 -71.12,25.62537 -103.29729,41.15204 z"
       id="path4208"
       inkscape:connector-curvature="0"
       sodipodi:nodetypes="cccc" />
  </g>
</svg>
